<?xml version="1.0" encoding="UTF-8" standalone="no"?><!DOCTYPE svg PUBLIC "-//W3C//DTD SVG 1.1//EN" "http://www.w3.org/Graphics/SVG/1.1/DTD/svg11.dtd"><svg width="100%" height="100%" viewBox="0 0 834 250" version="1.1" xmlns="http://www.w3.org/2000/svg" xmlns:xlink="http://www.w3.org/1999/xlink" xml:space="preserve" xmlns:serif="http://www.serif.com/" style="fill-rule:evenodd;clip-rule:evenodd;stroke-linejoin:round;stroke-miterlimit:2;"><g id="Page-2" serif:id="Page 2"><rect x="-20.277" y="-38.308" width="321.673" height="321.673" style="fill:none;"/><g><path d="M148.97,103.232l20.618,-20.618c13.745,-13.585 35.908,-13.532 49.599,0.16c5.328,5.327 8.578,11.933 9.803,18.806c0.16,1.012 -0.107,1.971 -0.693,2.824c-0.586,0.799 -1.491,1.331 -2.45,1.438c-7.565,1.225 -14.864,4.795 -20.671,10.602c-7.459,7.405 -11.135,17.155 -11.081,26.904c-0.054,5.168 -0.586,10.335 -1.599,15.397c-6.872,-14.598 -16.355,-28.29 -28.396,-40.383l-15.13,-15.13Z" style="fill:url(#_Linear1);"/></g><g><path d="M69.163,183.038l15.131,15.131c7.298,7.298 10.175,17.421 8.524,26.904c-12.84,-2.611 -25.2,-8.205 -35.961,-16.889c-1.812,-1.438 -2.877,-3.622 -2.984,-5.966c-0.106,-2.291 0.746,-4.582 2.398,-6.234c5.54,-5.594 12.892,-12.946 12.892,-12.946Z" style="fill:url(#_Linear2);"/></g><g><path d="M64.851,178.822c-14.97,-15.024 -17.048,-38.625 -4.901,-56.046c0.533,-0.799 5.541,-7.139 5.541,-7.139l45.39,55.939c14.385,14.438 21.044,33.67 19.819,52.53c-12.413,3.196 -25.412,3.569 -37.879,1.012c1.598,-9.483 -1.225,-19.605 -8.577,-26.904c-0,-0 -9.217,-9.27 -19.393,-19.392Z" style="fill:#ff3000;"/></g><g><path d="M66.61,127.304c-15.024,-14.97 -17.102,-38.625 -4.955,-55.993c0.586,-0.799 4.209,-4.421 4.209,-4.421l71.602,78.102c16.622,16.622 26.585,37.452 29.728,59.082c-10.602,10.016 -23.228,16.675 -36.494,20.032c1.225,-18.86 -5.434,-38.092 -19.819,-52.53l-44.271,-44.272Z" style="fill:#3b3b3b;"/></g><g><path d="M68.048,75.574c-15.024,-15.024 -17.102,-38.625 -4.955,-56.046c0.213,-0.267 0.799,-1.119 1.545,-2.131c0.693,-1.066 1.918,-1.599 3.197,-1.545c1.225,0.106 2.344,0.799 2.93,1.918c16.729,28.289 62.386,67.926 93.286,100.637c12.093,12.04 21.576,25.732 28.395,40.383c-3.09,15.876 -10.761,31.06 -23.068,43.366l-2.184,1.918c-3.143,-21.63 -13.106,-42.46 -29.728,-59.082l-69.418,-69.418Z" style="fill:#00b1e0;"/></g></g><g transform="matrix(0.868278,0,0,1,29.7847,-2.84217e-14)"><text x="226.117px" y="211.106px" style="font-family:'RealHeadPro-Demibold', 'Real Head Pro', sans-serif;font-weight:600;font-size:136.632px;fill:#3b3b3b;">counseal</text></g><defs><linearGradient id="_Linear1" x1="0" y1="0" x2="1" y2="0" gradientUnits="userSpaceOnUse" gradientTransform="matrix(137.555,-137.555,137.555,137.555,91.4858,220.864)"><stop offset="0" style="stop-color:#f7bd3f;stop-opacity:1"/><stop offset="0.53" style="stop-color:#f7bb05;stop-opacity:1"/><stop offset="1" style="stop-color:#ff9d00;stop-opacity:1"/></linearGradient><linearGradient id="_Linear2" x1="0" y1="0" x2="1" y2="0" gradientUnits="userSpaceOnUse" gradientTransform="matrix(137.555,-137.555,137.555,137.555,91.4858,220.864)"><stop offset="0" style="stop-color:#f7bd3f;stop-opacity:1"/><stop offset="0.53" style="stop-color:#f7bb05;stop-opacity:1"/><stop offset="1" style="stop-color:#ff9d00;stop-opacity:1"/></linearGradient></defs></svg>